<svg width="32" height="33" viewBox="0 0 32 33" fill="none" xmlns="http://www.w3.org/2000/svg">
<g clip-path="url(#clip0_236_4250)">
<path d="M31.9981 15.9792C31.9981 15.8274 31.9952 15.6756 31.9903 15.5248C31.9903 15.5103 31.9903 15.4968 31.9884 15.4823C31.8724 11.8176 30.5239 8.46324 28.343 5.8213L26.1864 7.55553C26.6736 8.14327 27.1115 8.77354 27.4924 9.44055L27.4701 9.45312C28.5876 11.3952 29.2295 13.6427 29.2295 16.0439V16.0507C29.2198 18.4229 28.5837 20.6453 27.4817 22.5681L27.504 22.5806C25.2274 26.5788 20.9276 29.2759 15.9976 29.2759C11.0675 29.2759 6.78415 26.5885 4.50472 22.6029L4.52792 22.5893C3.41044 20.6473 2.76856 18.3997 2.76856 15.9985V15.9927C2.76856 15.8622 2.77049 15.7317 2.77533 15.6012C2.77533 15.5993 2.77533 15.5964 2.77533 15.5944C2.84976 13.372 3.47617 11.2898 4.51632 9.47535L4.49505 9.46279C4.89719 8.75614 5.36216 8.0901 5.88417 7.47239L3.75361 5.70337C1.41038 8.48644 -0.000976562 12.0786 -0.000976562 15.9995C-0.000976562 16.0246 -9.88279e-06 16.0497 -9.88279e-06 16.0749C-9.88279e-06 16.2266 0.00289016 16.3774 0.00772356 16.5282C0.00772356 16.5398 0.00772355 16.5514 0.00869024 16.563C0.282261 25.1588 7.33709 32.0444 15.9985 32.0444C24.66 32.0444 31.9981 24.8804 31.9981 16.0449C31.9981 16.0227 31.9971 16.0004 31.9971 15.9792H31.9981Z" fill="#002C2F"/>
<path d="M15.9994 26.7359C19.9144 26.7359 23.3316 24.6064 25.1596 21.4443L22.7893 20.0755C21.6612 22.0263 19.7163 23.4405 17.4252 23.863V2.88506H17.4185V2.87249C17.4465 2.87636 17.4736 2.87926 17.5016 2.88313C17.6804 2.90246 17.8564 2.92759 18.0333 2.95369C18.0758 2.96046 18.1164 2.96626 18.1589 2.97303C18.3484 3.00493 18.535 3.0407 18.7215 3.07936C18.7853 3.09386 18.8511 3.1074 18.9149 3.1219C19.087 3.16056 19.259 3.20213 19.4292 3.24757C19.4997 3.2669 19.5693 3.28623 19.6399 3.3075C19.7627 3.34327 19.8825 3.37807 20.0034 3.4177C20.0836 3.44283 20.1648 3.46894 20.2441 3.496C20.3311 3.52597 20.4161 3.55787 20.5022 3.5888L20.5128 3.55787C20.5215 3.56077 20.5292 3.56367 20.5379 3.56657L21.4785 0.963301C19.7694 0.34076 17.9231 0.000488281 15.9984 0.000488281C14.0738 0.000488281 12.2661 0.333993 10.5715 0.944934L10.5811 0.972001C10.5724 0.974901 10.5637 0.977801 10.555 0.981668L11.4976 3.5917C11.5788 3.5627 11.66 3.53177 11.7421 3.50374C11.8233 3.4757 11.9055 3.45057 11.9867 3.4235C12.1104 3.38483 12.2351 3.34713 12.3608 3.3104C12.4391 3.2872 12.5164 3.26593 12.5967 3.24467C12.7562 3.20213 12.9157 3.16346 13.0771 3.1277C13.1409 3.1132 13.2066 3.09966 13.2704 3.08516C13.457 3.0465 13.6445 3.01073 13.833 2.97883C13.8775 2.97206 13.922 2.96433 13.9674 2.95949C14.1434 2.93339 14.3183 2.90826 14.4962 2.88893C14.5242 2.88506 14.5513 2.88216 14.5793 2.88023V2.89279H14.5745V23.8639C12.2815 23.4425 10.3385 22.0253 9.21039 20.0765L6.84009 21.4453C8.67001 24.6073 12.0853 26.7369 16.0003 26.7369L15.9994 26.7359Z" fill="#002C2F"/>
<path d="M14.5718 2.89184H14.5737V2.88507L14.5718 2.89184Z" fill="#002C2F"/>
</g>
<defs>
<clipPath id="clip0_236_4250">
<rect width="32" height="32.0445" fill="white" transform="translate(-0.000488281 0.000244141)"/>
</clipPath>
</defs>
</svg>
