<svg width="40" height="41" viewBox="0 0 40 41" fill="none" xmlns="http://www.w3.org/2000/svg">
<g filter="url(#filter0_d_198_4806)">
<g clip-path="url(#clip0_198_4806)">
<path d="M35.9981 15.9792C35.9981 15.8274 35.9952 15.6756 35.9903 15.5248C35.9903 15.5103 35.9903 15.4968 35.9884 15.4823C35.8724 11.8176 34.5239 8.46324 32.343 5.8213L30.1864 7.55553C30.6736 8.14327 31.1115 8.77354 31.4924 9.44055L31.4701 9.45312C32.5876 11.3952 33.2295 13.6427 33.2295 16.0439V16.0507C33.2198 18.4229 32.5837 20.6453 31.4817 22.5681L31.504 22.5806C29.2274 26.5788 24.9276 29.2759 19.9976 29.2759C15.0675 29.2759 10.7841 26.5885 8.50472 22.6029L8.52792 22.5893C7.41044 20.6473 6.76856 18.3997 6.76856 15.9985V15.9927C6.76856 15.8622 6.77049 15.7317 6.77533 15.6012C6.77533 15.5993 6.77533 15.5964 6.77533 15.5944C6.84976 13.372 7.47617 11.2898 8.51632 9.47535L8.49505 9.46279C8.89719 8.75614 9.36216 8.0901 9.88417 7.47239L7.75361 5.70337C5.41038 8.48644 3.99902 12.0786 3.99902 15.9995C3.99902 16.0246 3.99999 16.0497 3.99999 16.0749C3.99999 16.2266 4.00289 16.3774 4.00772 16.5282C4.00772 16.5398 4.00772 16.5514 4.00869 16.563C4.28226 25.1588 11.3371 32.0444 19.9985 32.0444C28.66 32.0444 35.9981 24.8804 35.9981 16.0449C35.9981 16.0227 35.9971 16.0004 35.9971 15.9792H35.9981Z" fill="#002C2F"/>
<path d="M19.9995 26.7359C23.9145 26.7359 27.3317 24.6064 29.1597 21.4443L26.7894 20.0755C25.6613 22.0263 23.7163 23.4405 21.4253 23.863V2.88506H21.4185V2.87249C21.4466 2.87636 21.4736 2.87926 21.5017 2.88313C21.6805 2.90246 21.8564 2.92759 22.0333 2.95369C22.0759 2.96046 22.1165 2.96626 22.159 2.97303C22.3485 3.00493 22.5351 3.0407 22.7216 3.07936C22.7854 3.09386 22.8512 3.1074 22.915 3.1219C23.087 3.16056 23.2591 3.20213 23.4292 3.24757C23.4998 3.2669 23.5694 3.28623 23.64 3.3075C23.7627 3.34327 23.8826 3.37807 24.0034 3.4177C24.0837 3.44283 24.1649 3.46894 24.2441 3.496C24.3311 3.52597 24.4162 3.55787 24.5023 3.5888L24.5129 3.55787C24.5216 3.56077 24.5293 3.56367 24.538 3.56657L25.4786 0.963301C23.7695 0.34076 21.9231 0.000488281 19.9985 0.000488281C18.0738 0.000488281 16.2661 0.333993 14.5715 0.944934L14.5812 0.972001C14.5725 0.974901 14.5638 0.977801 14.5551 0.981668L15.4976 3.5917C15.5788 3.5627 15.66 3.53177 15.7422 3.50374C15.8234 3.4757 15.9056 3.45057 15.9868 3.4235C16.1105 3.38483 16.2352 3.34713 16.3609 3.3104C16.4392 3.2872 16.5165 3.26593 16.5967 3.24467C16.7562 3.20213 16.9157 3.16346 17.0772 3.1277C17.141 3.1132 17.2067 3.09966 17.2705 3.08516C17.4571 3.0465 17.6446 3.01073 17.8331 2.97883C17.8776 2.97206 17.9221 2.96433 17.9675 2.95949C18.1434 2.93339 18.3184 2.90826 18.4963 2.88893C18.5243 2.88506 18.5514 2.88216 18.5794 2.88023V2.89279H18.5746V23.8639C16.2816 23.4425 14.3386 22.0253 13.2105 20.0765L10.8402 21.4453C12.6701 24.6073 16.0854 26.7369 20.0004 26.7369L19.9995 26.7359Z" fill="#002C2F"/>
<path d="M18.5717 2.89184H18.5737V2.88507L18.5717 2.89184Z" fill="#002C2F"/>
</g>
</g>
<defs>
<filter id="filter0_d_198_4806" x="-0.000488281" y="0" width="40.0005" height="40.0447" filterUnits="userSpaceOnUse" color-interpolation-filters="sRGB">
<feFlood flood-opacity="0" result="BackgroundImageFix"/>
<feColorMatrix in="SourceAlpha" type="matrix" values="0 0 0 0 0 0 0 0 0 0 0 0 0 0 0 0 0 0 127 0" result="hardAlpha"/>
<feOffset dy="4"/>
<feGaussianBlur stdDeviation="2"/>
<feComposite in2="hardAlpha" operator="out"/>
<feColorMatrix type="matrix" values="0 0 0 0 0 0 0 0 0 0 0 0 0 0 0 0 0 0 0.25 0"/>
<feBlend mode="normal" in2="BackgroundImageFix" result="effect1_dropShadow_198_4806"/>
<feBlend mode="normal" in="SourceGraphic" in2="effect1_dropShadow_198_4806" result="shape"/>
</filter>
<clipPath id="clip0_198_4806">
<rect width="32" height="32.0445" fill="white" transform="translate(3.99951 0.000244141)"/>
</clipPath>
</defs>
</svg>
