<svg width="525" height="525" viewBox="0 0 525 525" fill="none" xmlns="http://www.w3.org/2000/svg">
<rect width="525" height="525" fill="white"/>
<g clip-path="url(#clip0_236_4822)">
<mask id="path-1-inside-1_236_4822" fill="white">
<rect x="144" y="185" width="237" height="223" rx="2"/>
</mask>
<rect x="144" y="185" width="237" height="223" rx="2" fill="#CCDDDD" stroke="#46ADB4" stroke-width="6" mask="url(#path-1-inside-1_236_4822)"/>
<g filter="url(#filter0_d_236_4822)">
<rect width="189.271" height="244" transform="translate(167 134)" fill="#EAF4F4"/>
</g>
<g clip-path="url(#clip1_236_4822)">
<path d="M378.619 261.542V406.034H146.379V261.542L211.248 323.088L212.281 324.068L213.313 323.088L256.975 281.662L255.943 280.573L256.975 281.662C260.072 278.724 264.926 278.724 268.022 281.662L269.054 280.573L268.022 281.662L311.684 323.088L312.717 324.068L313.749 323.088L378.619 261.542Z" fill="#F0F1F1" stroke="#46ADB4" stroke-width="3" stroke-miterlimit="10"/>
<path d="M145 388L256 282.5" stroke="#46ADB4" stroke-width="3" stroke-miterlimit="10"/>
<path d="M380 388L269 282.5" stroke="#46ADB4" stroke-width="3" stroke-miterlimit="10"/>
</g>
<g clip-path="url(#clip2_236_4822)">
<path d="M252.147 202.305L235.18 219.114C234.684 219.605 234.291 220.19 234.023 220.834C233.754 221.478 233.616 222.169 233.616 222.867C233.616 223.565 233.754 224.256 234.023 224.9C234.291 225.544 234.684 226.128 235.18 226.62L246.385 237.825C246.877 238.321 247.461 238.714 248.105 238.982C248.749 239.251 249.44 239.389 250.138 239.389C250.836 239.389 251.527 239.251 252.171 238.982C252.815 238.714 253.4 238.321 253.891 237.825L270.7 220.858" stroke="#147C83" stroke-width="6.27962" stroke-linecap="round" stroke-linejoin="round"/>
<path d="M283.861 207.693L300.67 190.885C301.165 190.393 301.558 189.809 301.827 189.164C302.095 188.52 302.233 187.829 302.233 187.132C302.233 186.434 302.095 185.743 301.827 185.099C301.558 184.455 301.165 183.87 300.67 183.379L289.622 172.173C289.131 171.678 288.546 171.284 287.902 171.016C287.258 170.748 286.567 170.61 285.87 170.61C285.172 170.61 284.481 170.748 283.837 171.016C283.193 171.284 282.608 171.678 282.117 172.173L265.308 189.14" stroke="#147C83" stroke-width="6.27962" stroke-linecap="round" stroke-linejoin="round"/>
<path d="M278.574 194.428L257.431 215.57" stroke="#147C83" stroke-width="6.27962" stroke-linecap="round" stroke-linejoin="round"/>
</g>
</g>
<path d="M73.5 171L80.9274 174.577L82.7618 182.614L77.6219 189.059H69.3781L64.2382 182.614L66.0726 174.577L73.5 171Z" fill="#FFF8B8"/>
<rect width="15.48" height="15.48" transform="matrix(0.999991 -0.00427808 0.00426504 0.999991 389 144.066)" fill="#A9E8EC"/>
<rect width="15.48" height="15.48" transform="matrix(0.999991 -0.00427808 0.00426504 0.999991 415 116.066)" fill="#A9E8EC"/>
<rect width="15.48" height="15.48" transform="matrix(0.999991 -0.00427808 0.00426504 0.999991 124 144.066)" fill="#A9E8EC"/>
<rect width="16.3785" height="16.3785" rx="8.18927" transform="matrix(0.999991 -0.00427808 0.00426504 0.999991 373 96.0703)" fill="#FFF8B8"/>
<rect width="16.766" height="16.766" rx="8.38299" transform="matrix(0.999991 -0.00427808 0.00426504 0.999991 93 100.072)" fill="#FFF8B8"/>
<rect width="16.0001" height="16.0001" transform="matrix(0.999991 -0.00427808 0.00426504 0.999991 145 88.0685)" fill="#CCF1F1"/>
<defs>
<filter id="filter0_d_236_4822" x="161.9" y="128.9" width="199.471" height="254.2" filterUnits="userSpaceOnUse" color-interpolation-filters="sRGB">
<feFlood flood-opacity="0" result="BackgroundImageFix"/>
<feColorMatrix in="SourceAlpha" type="matrix" values="0 0 0 0 0 0 0 0 0 0 0 0 0 0 0 0 0 0 127 0" result="hardAlpha"/>
<feOffset/>
<feGaussianBlur stdDeviation="2.55"/>
<feComposite in2="hardAlpha" operator="out"/>
<feColorMatrix type="matrix" values="0 0 0 0 0 0 0 0 0 0.172333 0 0 0 0 0.183333 0 0 0 0.1 0"/>
<feBlend mode="normal" in2="BackgroundImageFix" result="effect1_dropShadow_236_4822"/>
<feBlend mode="normal" in="SourceGraphic" in2="effect1_dropShadow_236_4822" result="shape"/>
</filter>
<clipPath id="clip0_236_4822">
<rect width="237" height="292" fill="white" transform="translate(144 116)"/>
</clipPath>
<clipPath id="clip1_236_4822">
<rect width="237.002" height="152.415" fill="white" transform="translate(144 256)"/>
</clipPath>
<clipPath id="clip2_236_4822">
<rect width="74" height="74" fill="white" transform="translate(231 168)"/>
</clipPath>
</defs>
</svg>
