<svg width="525" height="525" viewBox="0 0 525 525" fill="none" xmlns="http://www.w3.org/2000/svg">
<rect width="525" height="525" fill="white"/>
<g clip-path="url(#clip0_198_196)">
<mask id="path-1-inside-1_198_196" fill="white">
<rect x="228.727" y="240.465" width="194.184" height="118.159" rx="2.00054"/>
</mask>
<rect x="228.727" y="240.465" width="194.184" height="118.159" rx="2.00054" fill="#D8EAEA"/>
<path d="M432.614 241.187C432.614 246.711 428.136 251.19 422.611 251.19H416.434C413.761 251.19 411.237 252.222 409.358 254.122C397.36 266.258 351.358 312.792 332.714 331.65C328.799 335.611 322.435 335.578 318.52 331.618L241.946 254.16C240.067 252.259 237.505 251.19 234.833 251.19H228.655C223.131 251.19 218.652 246.711 218.652 241.187V226.651C218.652 221.127 223.131 216.648 228.655 216.648H422.611C428.136 216.648 432.614 221.127 432.614 226.651V241.187Z" stroke="#46ADB4" stroke-width="3"/>
<path d="M285.06 297.713L229.645 354.044" stroke="#46ADB4" stroke-width="3"/>
<path d="M367.037 297.713L422.453 354.044" stroke="#46ADB4" stroke-width="3"/>
</g>
<rect x="228.727" y="240.465" width="194.184" height="118.159" rx="2.00054" stroke="#46ADB4" stroke-width="6" mask="url(#path-1-inside-1_198_196)"/>
<g filter="url(#filter0_ddddd_198_196)">
<g clip-path="url(#clip1_198_196)">
<mask id="path-5-inside-2_198_196" fill="white">
<rect x="123.094" y="155" width="206.312" height="135.067" rx="2.28102"/>
</mask>
<rect x="123.094" y="155" width="206.312" height="135.067" rx="2.28102" fill="#F0F1F1"/>
<path d="M348.143 155.856C348.143 162.155 343.037 167.261 336.738 167.261H329.703C326.65 167.261 323.768 168.442 321.624 170.615C307.944 184.488 255.51 237.663 234.247 259.226C229.781 263.755 222.509 263.718 218.043 259.188L130.745 170.658C128.601 168.485 125.676 167.261 122.624 167.261H115.589C109.29 167.261 104.184 162.155 104.184 155.856V139.182C104.184 132.884 109.29 127.777 115.589 127.777H336.738C343.037 127.777 348.143 132.884 348.143 139.182V155.856Z" stroke="#46ADB4" stroke-width="3"/>
<path d="M184.687 225.502L123.832 284.872" stroke="#46ADB4" stroke-width="3"/>
<path d="M268.548 225.502L329.402 284.872" stroke="#46ADB4" stroke-width="3"/>
</g>
<rect x="123.094" y="155" width="206.312" height="135.067" rx="2.28102" stroke="#46ADB4" stroke-width="6" mask="url(#path-5-inside-2_198_196)"/>
</g>
<g clip-path="url(#clip2_198_196)">
<rect x="183" y="309" width="79.8571" height="79.8571" rx="39.9286" fill="#CCF1F1"/>
<path d="M223.224 355.074C231.706 355.074 238.581 348.198 238.581 339.717C238.581 331.235 231.706 324.359 223.224 324.359C214.743 324.359 207.867 331.235 207.867 339.717C207.867 348.198 214.743 355.074 223.224 355.074Z" fill="#A9E8EC" stroke="#147C83" stroke-width="4" stroke-linecap="round" stroke-linejoin="round"/>
<path d="M223.5 428C241.449 428 256 413.449 256 395.5C256 377.551 241.449 363 223.5 363C205.551 363 191 377.551 191 395.5C191 413.449 205.551 428 223.5 428Z" fill="#A9E8EC" stroke="#147C83" stroke-width="4" stroke-linecap="round" stroke-linejoin="round"/>
</g>
<rect x="185" y="311" width="75.8571" height="75.8571" rx="37.9286" stroke="#147C83" stroke-width="4"/>
<g filter="url(#filter1_ddddd_198_196)">
<g clip-path="url(#clip3_198_196)">
<rect x="293" y="115" width="110.857" height="110.857" rx="55.4286" fill="white"/>
<path d="M348.838 178.96C360.612 178.96 370.157 169.415 370.157 157.641C370.157 145.867 360.612 136.322 348.838 136.322C337.064 136.322 327.52 145.867 327.52 157.641C327.52 169.415 337.064 178.96 348.838 178.96Z" fill="#CCF1F1" stroke="#147C83" stroke-width="4" stroke-linecap="round" stroke-linejoin="round"/>
<path d="M349.222 280.195C374.139 280.195 394.338 259.996 394.338 235.079C394.338 210.162 374.139 189.963 349.222 189.963C324.305 189.963 304.105 210.162 304.105 235.079C304.105 259.996 324.305 280.195 349.222 280.195Z" fill="#CCF1F1" stroke="#147C83" stroke-width="4" stroke-linecap="round" stroke-linejoin="round"/>
</g>
<rect x="295" y="117" width="106.857" height="106.857" rx="53.4286" stroke="#147C83" stroke-width="4"/>
</g>
<defs>
<filter id="filter0_ddddd_198_196" x="75.0938" y="131" width="302.312" height="231.067" filterUnits="userSpaceOnUse" color-interpolation-filters="sRGB">
<feFlood flood-opacity="0" result="BackgroundImageFix"/>
<feColorMatrix in="SourceAlpha" type="matrix" values="0 0 0 0 0 0 0 0 0 0 0 0 0 0 0 0 0 0 127 0" result="hardAlpha"/>
<feOffset dy="2"/>
<feGaussianBlur stdDeviation="2"/>
<feColorMatrix type="matrix" values="0 0 0 0 0.0705882 0 0 0 0 0.0705882 0 0 0 0 0.0901961 0 0 0 0.0399338 0"/>
<feBlend mode="normal" in2="BackgroundImageFix" result="effect1_dropShadow_198_196"/>
<feColorMatrix in="SourceAlpha" type="matrix" values="0 0 0 0 0 0 0 0 0 0 0 0 0 0 0 0 0 0 127 0" result="hardAlpha"/>
<feOffset dy="5"/>
<feGaussianBlur stdDeviation="4"/>
<feColorMatrix type="matrix" values="0 0 0 0 0.0705882 0 0 0 0 0.0705882 0 0 0 0 0.0901961 0 0 0 0.04 0"/>
<feBlend mode="normal" in2="effect1_dropShadow_198_196" result="effect2_dropShadow_198_196"/>
<feColorMatrix in="SourceAlpha" type="matrix" values="0 0 0 0 0 0 0 0 0 0 0 0 0 0 0 0 0 0 127 0" result="hardAlpha"/>
<feOffset dy="10"/>
<feGaussianBlur stdDeviation="9"/>
<feColorMatrix type="matrix" values="0 0 0 0 0.0705882 0 0 0 0 0.0705882 0 0 0 0 0.0901961 0 0 0 0.03 0"/>
<feBlend mode="normal" in2="effect2_dropShadow_198_196" result="effect3_dropShadow_198_196"/>
<feColorMatrix in="SourceAlpha" type="matrix" values="0 0 0 0 0 0 0 0 0 0 0 0 0 0 0 0 0 0 127 0" result="hardAlpha"/>
<feOffset dy="24"/>
<feGaussianBlur stdDeviation="24"/>
<feColorMatrix type="matrix" values="0 0 0 0 0.0705882 0 0 0 0 0.0705882 0 0 0 0 0.0901961 0 0 0 0.03 0"/>
<feBlend mode="normal" in2="effect3_dropShadow_198_196" result="effect4_dropShadow_198_196"/>
<feColorMatrix in="SourceAlpha" type="matrix" values="0 0 0 0 0 0 0 0 0 0 0 0 0 0 0 0 0 0 127 0" result="hardAlpha"/>
<feMorphology radius="1" operator="dilate" in="SourceAlpha" result="effect5_dropShadow_198_196"/>
<feOffset/>
<feColorMatrix type="matrix" values="0 0 0 0 0.0705882 0 0 0 0 0.0705882 0 0 0 0 0.0901961 0 0 0 0.1 0"/>
<feBlend mode="normal" in2="effect4_dropShadow_198_196" result="effect5_dropShadow_198_196"/>
<feBlend mode="normal" in="SourceGraphic" in2="effect5_dropShadow_198_196" result="shape"/>
</filter>
<filter id="filter1_ddddd_198_196" x="245" y="91" width="206.857" height="206.857" filterUnits="userSpaceOnUse" color-interpolation-filters="sRGB">
<feFlood flood-opacity="0" result="BackgroundImageFix"/>
<feColorMatrix in="SourceAlpha" type="matrix" values="0 0 0 0 0 0 0 0 0 0 0 0 0 0 0 0 0 0 127 0" result="hardAlpha"/>
<feOffset dy="2"/>
<feGaussianBlur stdDeviation="2"/>
<feColorMatrix type="matrix" values="0 0 0 0 0.0705882 0 0 0 0 0.0705882 0 0 0 0 0.0901961 0 0 0 0.0399338 0"/>
<feBlend mode="normal" in2="BackgroundImageFix" result="effect1_dropShadow_198_196"/>
<feColorMatrix in="SourceAlpha" type="matrix" values="0 0 0 0 0 0 0 0 0 0 0 0 0 0 0 0 0 0 127 0" result="hardAlpha"/>
<feOffset dy="5"/>
<feGaussianBlur stdDeviation="4"/>
<feColorMatrix type="matrix" values="0 0 0 0 0.0705882 0 0 0 0 0.0705882 0 0 0 0 0.0901961 0 0 0 0.04 0"/>
<feBlend mode="normal" in2="effect1_dropShadow_198_196" result="effect2_dropShadow_198_196"/>
<feColorMatrix in="SourceAlpha" type="matrix" values="0 0 0 0 0 0 0 0 0 0 0 0 0 0 0 0 0 0 127 0" result="hardAlpha"/>
<feOffset dy="10"/>
<feGaussianBlur stdDeviation="9"/>
<feColorMatrix type="matrix" values="0 0 0 0 0.0705882 0 0 0 0 0.0705882 0 0 0 0 0.0901961 0 0 0 0.03 0"/>
<feBlend mode="normal" in2="effect2_dropShadow_198_196" result="effect3_dropShadow_198_196"/>
<feColorMatrix in="SourceAlpha" type="matrix" values="0 0 0 0 0 0 0 0 0 0 0 0 0 0 0 0 0 0 127 0" result="hardAlpha"/>
<feOffset dy="24"/>
<feGaussianBlur stdDeviation="24"/>
<feColorMatrix type="matrix" values="0 0 0 0 0.0705882 0 0 0 0 0.0705882 0 0 0 0 0.0901961 0 0 0 0.03 0"/>
<feBlend mode="normal" in2="effect3_dropShadow_198_196" result="effect4_dropShadow_198_196"/>
<feColorMatrix in="SourceAlpha" type="matrix" values="0 0 0 0 0 0 0 0 0 0 0 0 0 0 0 0 0 0 127 0" result="hardAlpha"/>
<feMorphology radius="1" operator="dilate" in="SourceAlpha" result="effect5_dropShadow_198_196"/>
<feOffset/>
<feColorMatrix type="matrix" values="0 0 0 0 0.0705882 0 0 0 0 0.0705882 0 0 0 0 0.0901961 0 0 0 0.1 0"/>
<feBlend mode="normal" in2="effect4_dropShadow_198_196" result="effect5_dropShadow_198_196"/>
<feBlend mode="normal" in="SourceGraphic" in2="effect5_dropShadow_198_196" result="shape"/>
</filter>
<clipPath id="clip0_198_196">
<rect x="228.727" y="240.465" width="194.184" height="118.159" rx="2.00054" fill="white"/>
</clipPath>
<clipPath id="clip1_198_196">
<rect x="123.094" y="155" width="206.312" height="135.067" rx="2.28102" fill="white"/>
</clipPath>
<clipPath id="clip2_198_196">
<rect x="183" y="309" width="79.8571" height="79.8571" rx="39.9286" fill="white"/>
</clipPath>
<clipPath id="clip3_198_196">
<rect x="293" y="115" width="110.857" height="110.857" rx="55.4286" fill="white"/>
</clipPath>
</defs>
</svg>
