<svg width="15" height="20" viewBox="0 0 15 20" fill="none" xmlns="http://www.w3.org/2000/svg">
<path fill-rule="evenodd" clip-rule="evenodd" d="M13.358 6.25398C13.146 4.13985 11.3175 3.43782 9.01167 3.24472L9.00035 0.310974L7.21413 0.318139L7.2252 3.17456C6.75624 3.17631 6.2764 3.18742 5.79969 3.19876L5.78891 0.323428L4.00412 0.33023L4.01473 3.26314C3.62813 3.27252 3.24848 3.28116 2.87826 3.28283L2.87799 3.27373L0.415009 3.28235L0.422801 5.18958C0.422801 5.18958 1.74141 5.15938 1.71958 5.18375C2.44291 5.18119 2.68041 5.60008 2.7498 5.9623L2.7628 9.30445C2.81271 9.30453 2.87783 9.30636 2.9516 9.31618L2.76343 9.31702L2.78049 13.9992C2.74962 14.2269 2.6172 14.5904 2.11185 14.5932C2.13477 14.6134 0.813743 14.5979 0.813743 14.5979L0.467242 16.7323L2.79162 16.7232C3.05401 16.7225 3.31385 16.7243 3.57084 16.7261H3.57113C3.73761 16.7273 3.90289 16.7285 4.06689 16.7289L4.07916 19.6965L5.86299 19.69L5.85214 16.7541C6.34149 16.7625 6.8155 16.7645 7.27824 16.7623L7.28869 19.6846L9.07443 19.6775L9.06361 16.7157C12.0652 16.5319 14.164 15.7673 14.4133 12.9478C14.6152 10.6768 13.5439 9.66787 11.838 9.26469C12.8711 8.73256 13.5148 7.80116 13.3575 6.2541L13.358 6.25398ZM10.9359 13.0366C10.9442 15.0718 7.74626 15.0392 6.28439 15.0243C6.15348 15.023 6.03649 15.0218 5.93697 15.0222L5.92233 11.0909C6.04399 11.0905 6.19174 11.0864 6.35912 11.0818C7.85717 11.0407 10.9272 10.9564 10.9363 13.0364L10.9359 13.0366ZM6.14415 9.24108C7.36466 9.25636 10.0251 9.28969 10.0185 7.4406C10.0114 5.549 7.4524 5.62682 6.2026 5.66483C6.06209 5.6691 5.93814 5.67287 5.83621 5.67328L5.8498 9.23878C5.93393 9.23844 6.03307 9.23968 6.14415 9.24108Z" fill="#00474B"/>
</svg>
