<svg width="20" height="20" viewBox="0 0 20 20" fill="none" xmlns="http://www.w3.org/2000/svg">
<path d="M18.9024 8.92217C19.1393 9.21748 19.2704 9.60116 19.2704 9.99897C19.2704 10.3968 19.1393 10.7805 18.9024 11.0758C17.4024 12.8919 13.9881 16.4276 10.0024 16.4276C6.01672 16.4276 2.60243 12.8919 1.10243 11.0758C0.865516 10.7805 0.734375 10.3968 0.734375 9.99897C0.734375 9.60116 0.865516 9.21748 1.10243 8.92217C2.60243 7.10607 6.01672 3.57031 10.0024 3.57031C13.9881 3.57031 17.4024 7.10607 18.9024 8.92217Z" stroke="#147C83" stroke-width="1.43017" stroke-linecap="round" stroke-linejoin="round"/>
<path d="M10.0017 12.8569C11.5796 12.8569 12.8588 11.5777 12.8588 9.99972C12.8588 8.42176 11.5796 7.14258 10.0017 7.14258C8.42372 7.14258 7.14453 8.42176 7.14453 9.99972C7.14453 11.5777 8.42372 12.8569 10.0017 12.8569Z" stroke="#147C83" stroke-width="1.43017" stroke-linecap="round" stroke-linejoin="round"/>
</svg>
