<svg width="15" height="14" viewBox="0 0 15 14" fill="none" xmlns="http://www.w3.org/2000/svg">
<g clip-path="url(#clip0_41_3978)">
<path d="M7.99016 1.09041L9.58016 4.30041C9.61632 4.38188 9.6732 4.45246 9.74514 4.50509C9.81708 4.55773 9.90156 4.59059 9.99016 4.60041L13.5002 5.12041C13.6018 5.13347 13.6976 5.17518 13.7764 5.24066C13.8552 5.30615 13.9138 5.3927 13.9452 5.49022C13.9767 5.58774 13.9798 5.69219 13.9541 5.79139C13.9284 5.89058 13.875 5.98042 13.8002 6.05041L11.2702 8.56041C11.2056 8.62074 11.1571 8.69625 11.1292 8.78008C11.1012 8.86391 11.0947 8.9534 11.1102 9.04041L11.7202 12.5704C11.7378 12.6718 11.7267 12.7762 11.6879 12.8716C11.6492 12.967 11.5845 13.0496 11.5011 13.11C11.4178 13.1705 11.3191 13.2063 11.2164 13.2134C11.1137 13.2206 11.0111 13.1987 10.9202 13.1504L7.76016 11.4804C7.67924 11.4407 7.5903 11.42 7.50016 11.42C7.41001 11.42 7.32107 11.4407 7.24016 11.4804L4.08016 13.1504C3.98924 13.1987 3.88659 13.2206 3.78388 13.2134C3.68117 13.2063 3.58253 13.1705 3.49917 13.11C3.41581 13.0496 3.35109 12.967 3.31238 12.8716C3.27366 12.7762 3.26249 12.6718 3.28016 12.5704L3.89016 9.00041C3.90562 8.9134 3.89908 8.82391 3.87113 8.74008C3.84319 8.65625 3.79473 8.58074 3.73016 8.52041L1.17016 6.05041C1.09442 5.9785 1.04116 5.88618 1.01682 5.78462C0.992483 5.68306 0.998119 5.57663 1.03304 5.47821C1.06797 5.37979 1.13068 5.2936 1.21359 5.2301C1.29649 5.16659 1.39604 5.12849 1.50016 5.12041L5.01016 4.60041C5.09875 4.59059 5.18323 4.55773 5.25517 4.50509C5.32711 4.45246 5.38399 4.38188 5.42016 4.30041L7.01016 1.09041C7.05345 0.996916 7.1226 0.917763 7.20942 0.862291C7.29624 0.806819 7.39712 0.777344 7.50016 0.777344C7.60319 0.777344 7.70407 0.806819 7.79089 0.862291C7.87771 0.917763 7.94686 0.996916 7.99016 1.09041V1.09041Z" stroke="#147C83" stroke-linecap="round" stroke-linejoin="round"/>
</g>
<defs>
<clipPath id="clip0_41_3978">
<rect width="14" height="14" fill="white" transform="translate(0.5)"/>
</clipPath>
</defs>
</svg>
